<svg width="24" height="24" viewBox="0 0 24 24" fill="none" xmlns="http://www.w3.org/2000/svg">
<path d="M11.9996 7.1999C11.3631 7.1999 10.7526 6.94705 10.3026 6.49696C9.85247 6.04687 9.59961 5.43642 9.59961 4.7999C9.59961 4.16338 9.85247 3.55293 10.3026 3.10285C10.7526 2.65276 11.3631 2.3999 11.9996 2.3999C12.6361 2.3999 13.2466 2.65276 13.6967 3.10285C14.1468 3.55293 14.3996 4.16338 14.3996 4.7999C14.3996 5.43642 14.1468 6.04687 13.6967 6.49696C13.2466 6.94705 12.6361 7.1999 11.9996 7.1999ZM11.9996 14.3999C11.3631 14.3999 10.7526 14.147 10.3026 13.697C9.85247 13.2469 9.59961 12.6364 9.59961 11.9999C9.59961 11.3634 9.85247 10.7529 10.3026 10.3028C10.7526 9.85276 11.3631 9.5999 11.9996 9.5999C12.6361 9.5999 13.2466 9.85276 13.6967 10.3028C14.1468 10.7529 14.3996 11.3634 14.3996 11.9999C14.3996 12.6364 14.1468 13.2469 13.6967 13.697C13.2466 14.147 12.6361 14.3999 11.9996 14.3999ZM11.9996 21.5999C11.3631 21.5999 10.7526 21.347 10.3026 20.897C9.85247 20.4469 9.59961 19.8364 9.59961 19.1999C9.59961 18.5634 9.85247 17.9529 10.3026 17.5028C10.7526 17.0528 11.3631 16.7999 11.9996 16.7999C12.6361 16.7999 13.2466 17.0528 13.6967 17.5028C14.1468 17.9529 14.3996 18.5634 14.3996 19.1999C14.3996 19.8364 14.1468 20.4469 13.6967 20.897C13.2466 21.347 12.6361 21.5999 11.9996 21.5999Z" fill="black"/>
</svg>
