<svg width="48" height="48" viewBox="0 0 48 48" fill="none" xmlns="http://www.w3.org/2000/svg">
<path d="M43.611 20.083H42V20H24V28H35.303C33.654 32.657 29.223 36 24 36C17.373 36 12 30.627 12 24C12 17.373 17.373 12 24 12C27.059 12 29.842 13.154 31.961 15.039L37.618 9.382C34.046 6.053 29.268 4 24 4C12.955 4 4 12.955 4 24C4 35.045 12.955 44 24 44C35.045 44 44 35.045 44 24C44 22.659 43.862 21.35 43.611 20.083Z" fill="#FFC107"/>
<path d="M6.30566 14.691L12.8767 19.51C14.6547 15.108 18.9607 12 23.9997 12C27.0587 12 29.8417 13.154 31.9607 15.039L37.6177 9.382C34.0457 6.053 29.2677 4 23.9997 4C16.3177 4 9.65566 8.337 6.30566 14.691Z" fill="#FF3D00"/>
<path d="M24.0003 44C29.1663 44 33.8603 42.023 37.4093 38.808L31.2193 33.57C29.1439 35.1483 26.6078 36.002 24.0003 36C18.7983 36 14.3813 32.683 12.7173 28.054L6.19531 33.079C9.50531 39.556 16.2273 44 24.0003 44Z" fill="#4CAF50"/>
<path d="M43.611 20.083H42V20H24V28H35.303C34.5142 30.2164 33.0934 32.1532 31.216 33.571L31.219 33.569L37.409 38.807C36.971 39.205 44 34 44 24C44 22.659 43.862 21.35 43.611 20.083Z" fill="#1976D2"/>
</svg>
