<svg width="24" height="24" viewBox="0 0 24 24" fill="none" xmlns="http://www.w3.org/2000/svg">
<path fill-rule="evenodd" clip-rule="evenodd" d="M3.59961 6.00005C3.59961 5.68179 3.72604 5.37656 3.95108 5.15152C4.17612 4.92648 4.48135 4.80005 4.79961 4.80005H19.1996C19.5179 4.80005 19.8231 4.92648 20.0481 5.15152C20.2732 5.37656 20.3996 5.68179 20.3996 6.00005C20.3996 6.31831 20.2732 6.62353 20.0481 6.84858C19.8231 7.07362 19.5179 7.20005 19.1996 7.20005H4.79961C4.48135 7.20005 4.17612 7.07362 3.95108 6.84858C3.72604 6.62353 3.59961 6.31831 3.59961 6.00005ZM3.59961 12C3.59961 11.6818 3.72604 11.3766 3.95108 11.1515C4.17612 10.9265 4.48135 10.8 4.79961 10.8H19.1996C19.5179 10.8 19.8231 10.9265 20.0481 11.1515C20.2732 11.3766 20.3996 11.6818 20.3996 12C20.3996 12.3183 20.2732 12.6235 20.0481 12.8486C19.8231 13.0736 19.5179 13.2 19.1996 13.2H4.79961C4.48135 13.2 4.17612 13.0736 3.95108 12.8486C3.72604 12.6235 3.59961 12.3183 3.59961 12ZM3.59961 18C3.59961 17.6818 3.72604 17.3766 3.95108 17.1515C4.17612 16.9265 4.48135 16.8 4.79961 16.8H19.1996C19.5179 16.8 19.8231 16.9265 20.0481 17.1515C20.2732 17.3766 20.3996 17.6818 20.3996 18C20.3996 18.3183 20.2732 18.6235 20.0481 18.8486C19.8231 19.0736 19.5179 19.2 19.1996 19.2H4.79961C4.48135 19.2 4.17612 19.0736 3.95108 18.8486C3.72604 18.6235 3.59961 18.3183 3.59961 18Z" fill="white"/>
</svg>
